<svg version="1.2" xmlns="http://www.w3.org/2000/svg" viewBox="0 0 800 600" width="800" height="600">
	<title>steg-logo-background-rounded-svg</title>
	<style>
		.s0 { fill: #f1e845 } 
		.s1 { fill: #313430 } 
	</style>
	<path id="Shape 2" class="s0" d="m0 15c0-8.3 6.7-15 15-15h770c8.3 0 15 6.7 15 15v570c0 8.3-6.7 15-15 15h-770c-8.3 0-15-6.7-15-15z"/>
	<filter id="f0">
		<feFlood flood-color="#222222" flood-opacity="1" />
		<feBlend mode="normal" in2="SourceGraphic"/>
		<feComposite in2="SourceAlpha" operator="in" />
	</filter>
	<g id="Folder 1" filter="url(#f0)">
		<path id="Layer" class="s1" d="m630.7 462.9c-11.5-5.5-25.8-9.8-29.1-24-3.9-17.1 8.6-29.5 25.1-29.6q15-0.1 24 13.3 0.1 0.2 0.1 0.3 0 0.2 0 0.3 0 0.2-0.1 0.3-0.1 0.2-0.3 0.3l-11.9 7.7q-0.2 0-0.3 0.1-0.2 0-0.3 0-0.2 0-0.3-0.1-0.2-0.1-0.3-0.2c-1.7-2.2-3.8-4.6-6.2-5.8-11.7-5.6-19.6 9.7-4.8 15.9q9.8 4 17.1 8.4c19.6 11.7 16.7 37.9-5.5 44.9-15.5 4.9-33.5-0.8-41.9-15.4q-0.1-0.2-0.1-0.4-0.1-0.2 0-0.3 0-0.2 0.1-0.4 0.2-0.1 0.3-0.2l12.1-7.1q0.3-0.1 0.5-0.1 0.3-0.1 0.5 0 0.3 0 0.5 0.2 0.3 0.1 0.4 0.3c13.9 20.6 42.6 2.3 20.4-8.4z"/>
		<path id="Layer" class="s1" d="m572 493.9c-14 5.6-30.4 1.4-37.6-12.5q-0.1-0.3-0.1-0.5 0-0.3 0-0.5 0.1-0.2 0.2-0.4 0.2-0.2 0.4-0.4l12.5-7.4q1.1-0.7 1.6 0.5c4.3 10.2 19.5 12 19.6-1.9q0.3-29.7 0.1-59.7 0-0.1 0-0.2 0.1-0.2 0.2-0.2 0-0.1 0.2-0.2 0.1 0 0.2 0h15.7q0.2 0 0.3 0.1 0.2 0 0.3 0.2 0.1 0.1 0.2 0.2 0.1 0.2 0.1 0.4-0.5 28.7 0.1 57.6c0.2 10.2-3.6 20.7-14 24.9z"/>
		<path id="Layer" class="s1" d="m512.9 496.7c-4.5 0-8.3-3.5-8.3-7.9 0-4.4 3.7-8 8.3-8 4.6 0 8.3 3.6 8.3 7.9 0 4.4-3.7 8-8.3 8z"/>
	</g>
</svg>